<?xml version="1.0" encoding="utf-8"?>
<svg version="1.1" id="Layer_x5F_1_x5F_1" xmlns="http://www.w3.org/2000/svg" x="0px" y="0px" viewBox="0 0 5071 741" style="enable-background:new 0 0 5071 741;" xmlns:bx="https://boxy-svg.com" width="5071px" height="741px"><defs><bx:export><bx:file format="svg" href="#object-0"/><bx:file format="svg" path="Untitled 2.svg"/></bx:export></defs><style type="text/css">
	.st0{fill-rule:evenodd;clip-rule:evenodd;fill:#333333;}
	.st1{fill-rule:evenodd;clip-rule:evenodd;fill:#006500;}
	.st2{fill-rule:evenodd;clip-rule:evenodd;fill:#44A154;}
	.st3{fill-rule:evenodd;clip-rule:evenodd;fill:#343434;}
	.st4{fill-rule:evenodd;clip-rule:evenodd;fill:#45A155;}
	.st5{fill-rule:evenodd;clip-rule:evenodd;fill:#46A155;}
	.st6{fill-rule:evenodd;clip-rule:evenodd;fill:#45A054;}
	.st7{fill-rule:evenodd;clip-rule:evenodd;fill:#46A054;}
	.st8{fill-rule:evenodd;clip-rule:evenodd;fill:#449F53;}
	.st9{fill-rule:evenodd;clip-rule:evenodd;fill:#BDDDC2;}
	.st10{fill-rule:evenodd;clip-rule:evenodd;fill:#FEFEFE;}
</style><path class="st0" d="M1187.9,449.8c-4.3,4.5-266.3,265.2-283.8,282.1c-1.6,1.5-4.3,2.8-6.5,2.8c-146.5,0.1-442.2-0.2-444.5-0.4 c1.7-1.9,720.5-714.7,735.6-729.2c1.1,1.1,733.9,727.1,735.4,728.2l-0.6,1.2c-1.6,0.1-296.8,0.3-442.8,0.3c-3.6,0-6.3-0.9-8.9-3.6 C1459.2,718.1,1220.4,481.5,1187.9,449.8z" style="fill: rgb(255, 255, 255);"/><path class="st1" d="M606,472.5c-15.6,15.3-229.7,227.8-261.4,258.9c-1.9,1.9-5.2,3.2-7.9,3.2c-108.7,0.2-329,0.1-331.8,0.1 c1.5-1.9,378.6-376.7,420.3-418.1c3.3-3.3,7-6.1,10.4-9.3c2.8-2.6,3.9,0.2,5.2,1.5C459.2,327,568.8,435.7,606,472.5z"/><polygon class="st2" points="492.7,250.1 661.2,83 829.8,250.1 661.3,417.3 "/><path class="st3" d="M3308.8,255.4v254h-51.9c0.4-66.1-1.2-132,1.2-198.2c-1.9,5.3-45.8,134.6-65.8,194c-1.1,3.4-2.8,4.6-6.4,4.5 c-14.2-0.2-28.4-0.2-42.6,0c-3.4,0-4.9-1-5.9-4.4c-4-13.8-58-184.2-61.2-194.4l3.1,198.5h-50.6v-254c1.7-0.1,48.9-0.2,70.8-0.4 c3.7,0,5.1,1.1,6.2,4.7c18.9,59.4,59.2,185.1,61.5,188.6c4.3-12.4,53.8-158.4,64-189.2c0.9-2.8,2.1-4.1,5.1-4.1 C3259.7,255.1,3307.6,255.2,3308.8,255.4z" style="fill: rgb(255, 255, 255);"/><path class="st3" d="M2116.2,317.9c1.1,18.6,2.8,37.1,3,55.7c0.5,44.6,0.3,89.2,0.4,133.8c0,0.5-0.2,1-0.3,1.8h-49.2v-254 c1.2-0.1,45.1-0.2,65.7-0.4c3.2,0,4.8,1.1,6.3,3.6c18.9,31.8,92,154.1,109.6,183.6c0.6,1,1.3,1.8,1.7,2.4V255.3h49.2v253.9 c-1.7,0.1-45.8,0.2-66.4,0.4c-3.7,0-5.7-1.2-7.5-4.4c-15.7-26.8-103.9-175-111.4-187.5L2116.2,317.9z" style="fill: rgb(255, 255, 255);"/><path class="st3" d="M4883.8,509.3h-49.8V255.4c1.4-0.1,2.9-0.4,4.3-0.4c20.5,0,40.9,0,61.3-0.1c2.9,0,4.7,0.6,6.4,3.5 c19.5,33,93.9,157.1,111.2,186V255.3h49.1v254c-1.6,0.1-3.2,0.3-4.8,0.3c-20.5,0-40.9-0.1-61.4,0.1c-3.4,0-5.5-1-7.3-4 c-16.1-27.4-104.8-176.4-110.7-186.5c-0.2-0.4-0.7-0.5-2.4-1.9C4885.7,382,4883.1,445.5,4883.8,509.3z" style="fill: rgb(255, 255, 255);" id="object-0"/><path class="st0" d="M4130.8,445.1V255.2h48.7v254.3h-5.1c-19.4,0-38.9-0.3-58.3,0.2c-6.1,0.2-9-2.2-11.9-7.1 c-12.4-21.3-96.5-163.1-109.1-184.2l2.6,190.8h-50.3V255c7.5,0,50.9,0.1,65.3-0.1c3.3,0,5.1,0.9,6.8,3.7 C4034.4,283.8,4124.2,434,4130.8,445.1z" style="fill: rgb(255, 255, 255);"/><path class="st3" d="M3552.4,384.8c-1.1-11.6-1.5-21.1-3-30.4c-5.2-32.7-22.1-55.2-56.7-57.8c-34.2-2.6-59.9,11.2-69.5,47.2 c-6.1,22.7-6,45.8-1.9,68.8c1.9,10.7,5.4,20.9,11.5,30c12.3,18.3,30.3,24.7,51.4,25c33.4,0.5,55.3-15.9,63-48.4 C3550.1,407.3,3551,394.9,3552.4,384.8z M3481.8,513.1c-16.2,0.8-33.8-2.3-50.7-8.3c-11.3-4-21.5-10.1-31-17.9 c-14.4-11.8-23.9-27-30.3-43.9c-3.8-10-6.1-20.7-7.4-31.3c-1.7-13.2-2.3-26.6-2.3-40c0-14.8,2.7-29.4,7.2-43.6 c4.2-13.2,9.8-25.7,18.6-36.4c9.8-11.9,21.3-21.6,35.6-28.1c24.9-11.4,51.2-13.4,77.9-11.9c22,1.2,43.1,6.6,61.8,19 c22.9,15.1,36.6,36.8,43,63c3,12.1,3.9,24.7,5.3,37.1c2.4,21.5-0.1,42.8-6.2,63.4c-11.2,37.1-34.8,62.3-72.9,73.1 C3514.9,511.4,3499.5,513.4,3481.8,513.1z" style="fill: rgb(255, 255, 255);"/><path class="st0" d="M2844.7,369.2c15.1-1.4,29.6-1.9,43.8-4.4c13.8-2.5,22.6-11.3,24.9-25.8c2.2-14.6-3-27.1-14.6-32.7 c-17.2-8.3-35.7-6.4-54.1-6.9L2844.7,369.2L2844.7,369.2z M2788.9,509.3v-254c0.8-0.1,62.2-0.5,92.2,0.4 c18.3,0.5,36.5,3.7,53.2,12.2c19.3,9.9,30.8,25.5,34.1,47.1c2.1,13.9,2.2,27.5-2.8,40.8c-6.2,16.1-17.4,27.9-32.1,36.5 c-3.7,2.1-7.4,4.1-12.1,6.7l76.8,110.4h-6c-17.1,0-34.1-0.1-51.2,0.1c-3.9,0-6-1.4-8-4.5c-19.2-30.1-38.5-60.2-58-90.2 c-0.8-1.3-2.7-2.6-4.1-2.6c-8.6-0.2-17.2-0.1-26.4-0.1v97H2788.9z" style="fill: rgb(255, 255, 255);"/><path class="st0" d="M3825.4,255.2h55.5c0.1,1.5,0.4,111.5,0.2,165.1c-0.1,24.1-7.2,45.9-24.3,63.4c-13.2,13.5-29.9,20.9-48.1,25.4 c-17.5,4.3-35.3,5-52.9,3.7c-21-1.6-41.1-7.4-58.1-20.7c-13.4-10.5-22.6-24-27.8-40.5c-3.4-10.7-4.2-21.5-4.2-32.4 c-0.1-52.6-0.1-161.7-0.1-164h55.5c0,2.2-0.2,105.2,0.2,154.7c0.1,9.3,1.6,18.7,3.7,27.8c3.7,16.5,15.6,25.4,31.4,28.4 c12.8,2.5,26,2.6,38.8-1.7c16.8-5.6,25.9-17.9,28.3-34.9c1.5-10.8,1.9-21.9,1.9-32.9C3825.5,351.5,3825.4,257.2,3825.4,255.2z" style="fill: rgb(255, 255, 255);"/><path class="st3" d="M4552,295.8l-33.2,107.5h67.4L4552,295.8z M4678.4,509.2h-60.1c-3.7-11.9-14.9-49-17.4-55.9c-0.6-1.7-3-4-4.5-4 c-30.6-0.2-61.2-0.2-92-0.2c-5.9,18.5-11.9,37-17.5,55.5c-1.1,3.7-2.6,4.9-6.5,4.9c-18-0.2-36.1-0.1-55.2-0.1 c2.6-7.7,88-243.8,91.4-252.1c0.6-1.5,3.1-3,4.8-3c20.5-0.2,40.9-0.1,61.4-0.2c3,0,3.8,1.1,4.7,3.8c21.5,59.4,82,225.1,90.6,248.6 C4678.2,507.4,4678.2,508.2,4678.4,509.2z" style="fill: rgb(255, 255, 255);"/><path class="st4" d="M1188.5,564.8l170.9,169.6c-2.2,0.2-339.8,0.9-341.9,0.2C1018.5,732.9,1177.5,575.3,1188.5,564.8z"/><polygon class="st0" points="2581.2,509.3 2581.2,255.2 2732,255.2 2732,299.3 2637,299.3 2637,355.1 2725.6,355.1 2725.6,399.4 &#xA;&#9;2637,399.4 2637,464.7 2731.9,464.7 2731.9,509.3 " style="fill: rgb(255, 255, 255);"/><polygon class="st0" points="2537.7,255.3 2537.7,300.1 2466.6,300.1 2466.6,509.3 2410.8,509.3 2410.8,300.4 2340,300.4 &#xA;&#9;2340,255.3 " style="fill: rgb(255, 255, 255);"/><polygon class="st0" points="4288.1,300.2 4217.2,300.2 4217.2,255.4 4414.8,255.4 4414.8,300.2 4343.9,300.2 4343.9,509.3 &#xA;&#9;4288.1,509.3 " style="fill: rgb(255, 255, 255);"/><rect x="4714.2" y="255.2" class="st0" width="55.2" height="254.1" style="fill: rgb(255, 255, 255);"/><rect x="1950.3" y="255.3" class="st3" width="55.1" height="254.1" style="fill: rgb(255, 255, 255);"/><path class="st5" d="M2428.6,593.5c0.2,11.3,0.6,22.6,0.6,33.9c0.1,31.8,0,63.5,0,95.3v6.5h-16.5V572.8c8.5,0,16.9-0.1,25.3,0.2 c1,0,2.4,1.9,2.9,3.2c14.3,37,46.1,119.9,48.4,125.5c1.9-4.3,43.3-111.7,49.1-126.2c0.5-1.1,2-2.6,3-2.6c8.4-0.2,16.8-0.1,25.5-0.1 v156.4h-17.8V592.9c-0.9,2.1-1.6,3.5-2.1,4.9c-16.1,41.8-32.2,83.7-48.4,125.5c-0.9,2.2-2.1,5.7-3.6,6c-4.2,0.8-8.7,0.5-13.1,0 c-0.9-0.1-1.8-2.6-2.4-4.2c-16.2-42.5-32.4-85-48.7-127.6c-0.6-1.5-1.4-2.9-2.2-4.4l-0.3-1.4l-0.6,0.2L2428.6,593.5z"/><path class="st6" d="M2858.4,729.3h-16V572.8c6.4,0,12.6-0.2,18.8,0.2c1.4,0.1,2.9,2,3.8,3.4c26.3,40.3,81.2,124.6,82.3,126.2V573.2 h17.2c0,1.8-0.1,102.1,0.1,150.6c0,5-1.7,5.8-6.2,6.5c-11.2,1.6-17.4-2.9-23.4-12.6c-23.4-37.5-74.8-115.9-76.5-118.7V729.3 L2858.4,729.3z"/><path class="st5" d="M2257.2,595.2l-24.6,67.7h49.4L2257.2,595.2z M2188.4,728.1c6.6-17.1,57.8-145.4,62-155.3 c0.6-1.3,10-0.8,14.6-0.8l61.5,157.8h-19.3l-19.6-50.1c-19.7,0-39.3-0.1-58.9,0.2c-1.5,0-2.8,0-3.4,1.6 c-5.6,14.1-12.1,30.3-17.3,44.5c-1.1,2.9-2.3,4-5.3,3.9c-4.6-0.2-9.1,0-13.7,0L2188.4,728.1z"/><path class="st5" d="M2686.1,595.4c-13.8-5.2-27.1-9.1-41.2-8.2c-7.4,0.4-14.6,2-20.2,7.4c-9.8,9.4-9,28,2.5,35.4 c8.3,5.3,17.7,9,26.8,13.1c11.2,4.9,22.7,9,31.8,17.8c5.6,5.5,8.9,12.1,9.6,19.4c2.3,23.7-5.1,40.5-32.4,48.8 c-19.5,5.9-39.2,3.4-58.6-1c-4.4-1-8.2-3-7.1-9.2c0.7-3.7,0.1-7.7,0.1-11.1c9.3,2.3,18.1,5.3,27.3,6.8c14.3,2.3,28.4,2.7,41.7-5.1 c14.1-8.2,15.1-31.5-0.5-40.1c-10.1-5.5-21.1-9.4-31.6-14.2c-10.9-4.9-21.8-9.8-28.5-20.5c-8.4-13.5-9.4-34,0.8-47.6 c6.5-8.7,15.7-13.2,26-14.9c18.6-3.1,37-1.5,54.9,5c3.6,1.3,4.7,3,3,6.7C2688.8,587.4,2687.7,591.2,2686.1,595.4z"/><path class="st5" d="M2069.4,579.7c-2.2,4.6-4.5,9-6.6,13.5c-1.4,3.1-3.4,1.8-5.3,0.9c-9.5-4.8-19.8-6.9-30.1-7 c-29.9-0.3-48.5,15.8-54.6,44.8c-4.1,19.4-3,38.8,6,56.8c8.3,16.7,22.4,25.2,41,26.3c13.2,0.8,26.1-0.9,38.8-4.3 c1.4-0.4,2.9-0.6,5.1-1.1c0,5.2,0.2,9.8-0.1,14.5c-0.1,1-1.7,2.4-2.9,2.7c-6.3,1.6-12.5,3.4-18.9,4.2c-7.5,0.9-15.1,1.4-22.6,1.1 c-16.9-0.6-32.7-4.8-45.3-16.7c-10.9-10.2-17-23.3-20.3-37.9c-2.9-13-3-26.1-1.9-39c1.4-16.4,6.8-31.8,18-44.7 c13.9-16,31.6-22.4,52.2-22.9c15.4-0.4,30.4,1,44.7,7.2C2067.3,578.5,2068.1,579,2069.4,579.7z"/><path class="st5" d="M3116,579.4c-2.3,5-4.1,9.7-6.6,14c-0.6,1-3.9,1.4-5.2,0.7c-9-4.9-18.9-6.6-28.7-6.9 c-30.6-0.9-50.2,15.3-56,45.6c-3.5,18.1-3,36.5,4.9,53.8c7.9,17.3,21.7,26.8,40.6,28.4c13.7,1.2,27.2-0.6,40.4-4.3 c1.4-0.4,2.9-0.6,4.9-1c0,5,0.2,9.6-0.1,14.1c-0.1,1.2-1.8,2.8-3.1,3.1c-16.1,4.1-32.3,6.8-49.1,4.4c-11-1.5-21.3-4.5-30.5-10.6 c-15.8-10.5-24.3-25.9-27.2-44.2c-1.9-12-3.3-24.4-2.2-36.4c2.5-26.9,13.1-49.6,38.9-62.2c9.2-4.5,19.1-6.7,29.5-7 c15-0.4,29.8,0.3,44,6.1C3112.2,577.7,3113.8,578.5,3116,579.4z"/><polygon class="st7" points="2186.6,729.6 2100.5,729.6 2100.5,573.2 2118.3,573.2 2118.3,712.8 2187.5,712.8 2187.5,728.1 "/><rect x="2350.2" y="573" class="st5" width="17.7" height="156.2"/><rect x="2779.9" y="573.1" class="st8" width="17.9" height="156.2"/><path class="st5" d="M3167.2,718c0.4,11.3-6.2,14.7-14,15.1c-7.4,0.4-12.3-5.8-12.3-15c0.1-10.4,4.7-14.9,12.8-14.5 C3162.9,704.2,3167.2,708.3,3167.2,718z"/><path class="st9" d="M2186.6,729.6l1-1.5c0.3,0,0.6-0.1,0.8-0.1l0.5,1.7L2186.6,729.6z"/><polygon class="st10" points="2428.6,593.5 2428,592 2428.6,591.8 2428.9,593.2 "/></svg>